HIERARCHY
ROOT Hips
{
 OFFSET 0.000000 0.000000 0.000000
 CHANNELS 6 Xposition Yposition Zposition Yrotation Xrotation Zrotation
 JOINT Chest
 {
  OFFSET 0.000000 9.585900 0.002600
  CHANNELS 3 Yrotation Xrotation Zrotation
  JOINT Chest2
  {
   OFFSET 0.000000 9.601200 -0.005300
   CHANNELS 3 Yrotation Xrotation Zrotation
   JOINT Chest3
   {
    OFFSET 0.000000 9.561800 0.000000
    CHANNELS 3 Yrotation Xrotation Zrotation
    JOINT Chest4
    {
     OFFSET 0.000000 9.552100 0.000000
     CHANNELS 3 Yrotation Xrotation Zrotation
     JOINT Neck
     {
      OFFSET 0.000000 14.453000 0.000000
      CHANNELS 3 Yrotation Xrotation Zrotation
      JOINT Head
      {
       OFFSET 0.000000 8.936500 -0.011300
       CHANNELS 3 Yrotation Xrotation Zrotation
       End Site
       {
        OFFSET 0.000000 17.073600 -0.006000
       }
      }
     }
     JOINT RightCollar
     {
      OFFSET -2.921100 9.558500 0.000000
      CHANNELS 3 Yrotation Xrotation Zrotation
      JOINT RightShoulder
      {
       OFFSET -13.519700 0.000000 0.000000
       CHANNELS 3 Yrotation Xrotation Zrotation
       JOINT RightElbow
       {
        OFFSET 0.000000 -29.696600 0.000000
        CHANNELS 3 Yrotation Xrotation Zrotation
        JOINT RightWrist
        {
         OFFSET 0.000000 -24.004700 0.000000
         CHANNELS 3 Yrotation Xrotation Zrotation
         End Site
         {
          OFFSET 0.000000 -17.728500 0.000000
         }
        }
       }
      }
     }
     JOINT LeftCollar
     {
      OFFSET 2.921100 9.558500 0.000000
      CHANNELS 3 Yrotation Xrotation Zrotation
      JOINT LeftShoulder
      {
       OFFSET 13.519700 0.000000 0.000000
       CHANNELS 3 Yrotation Xrotation Zrotation
       JOINT LeftElbow
       {
        OFFSET 0.000000 -29.696600 0.000000
        CHANNELS 3 Yrotation Xrotation Zrotation
        JOINT LeftWrist
        {
         OFFSET 0.000000 -24.004700 0.000000
         CHANNELS 3 Yrotation Xrotation Zrotation
         End Site
         {
          OFFSET 0.000000 -17.728500 0.000000
         }
        }
       }
      }
     }
    }
   }
  }
 }
 JOINT RightHip
 {
  OFFSET -7.771700 -0.012900 -0.001300
  CHANNELS 3 Yrotation Xrotation Zrotation
  JOINT RightKnee
  {
   OFFSET 0.000000 -40.869800 0.001200
   CHANNELS 3 Yrotation Xrotation Zrotation
   JOINT RightAnkle
   {
    OFFSET 0.000000 -39.717900 0.002100
    CHANNELS 3 Yrotation Xrotation Zrotation
    JOINT RightToe
    {
     OFFSET 0.000000 -4.965400 11.033500
     CHANNELS 3 Yrotation Xrotation Zrotation
     End Site
     {
      OFFSET 0.000000 -1.423100 5.872300
     }
    }
   }
  }
 }
 JOINT LeftHip
 {
  OFFSET 7.771700 -0.012900 -0.001300
  CHANNELS 3 Yrotation Xrotation Zrotation
  JOINT LeftKnee
  {
   OFFSET 0.000000 -40.869800 0.001200
   CHANNELS 3 Yrotation Xrotation Zrotation
   JOINT LeftAnkle
   {
    OFFSET 0.000000 -39.717900 0.002100
    CHANNELS 3 Yrotation Xrotation Zrotation
    JOINT LeftToe
    {
     OFFSET 0.000000 -4.965400 11.033500
     CHANNELS 3 Yrotation Xrotation Zrotation
     End Site
     {
      OFFSET 0.000000 -1.423100 5.872300
     }
    }
   }
  }
 }
}
MOTION
Frames: 13
Frame Time: 0.008333
-77.641538 50.409942 -6.561026 167.355863 -8.407424 0.056149 2.482227 8.122582 0.758488 0.116432 0.417939 -0.009659 0.202619 0.717208 -0.014537 2.162325 7.699864 -0.037855 1.448658 18.155611 -0.295927 2.752733 -1.993614 -1.004727 2.828286 6.457126 0.271796 -6.947703 -13.757951 -6.707585 -28.855993 -69.140539 42.336201 -3.430930 -2.913234 -26.645820 -5.494367 2.291711 -0.298233 18.302513 -7.402034 2.084119 34.699692 -68.266921 -53.783586 4.114117 1.155601 20.682706 -6.371004 -71.974679 -3.087873 -130.386641 80.942425 -129.206392 -3.347935 -17.481682 0.161026 -0.272533 0.839480 -0.115401 -3.636098 -76.259331 18.868390 114.319606 78.367261 110.746022 -15.519007 -22.096366 1.290760 -0.335314 -1.063468 -0.120220
-77.642619 50.409812 -6.559558 167.364472 -8.396512 0.058513 2.472274 8.118490 0.753697 0.116430 0.418311 -0.009673 0.205942 0.719494 -0.015512 2.158361 7.701712 -0.036707 1.443785 18.189153 -0.291520 2.748522 -1.997578 -1.005594 2.804922 6.447031 0.253499 -6.951796 -13.716829 -6.689239 -28.793017 -69.177788 42.281500 -3.402208 -2.894763 -26.702323 -5.498283 2.284467 -0.293459 18.240190 -7.306348 2.111760 34.710778 -68.327376 -53.749170 4.105456 1.181111 20.677671 -6.386590 -71.986947 -3.078474 -130.375020 80.939758 -129.200055 -3.351611 -17.482650 0.158827 -0.270795 0.839639 -0.112681 -3.622820 -76.269681 18.855953 114.281768 78.357328 110.698746 -15.532722 -22.093397 1.297645 -0.336278 -1.056221 -0.124245
-77.643067 50.410129 -6.559776 167.370793 -8.394928 0.060242 2.462190 8.124617 0.750847 0.118973 0.414040 -0.009963 0.201801 0.730472 -0.015428 2.158719 7.698531 -0.037308 1.440986 18.196424 -0.291022 2.743107 -1.984072 -1.003551 2.789741 6.435652 0.232701 -6.947963 -13.695310 -6.672358 -28.544771 -69.187783 42.009319 -3.419124 -2.917440 -26.720248 -5.502779 2.278614 -0.284706 18.225254 -7.277396 2.115667 34.546954 -68.340743 -53.580825 4.095087 1.209897 20.673858 -6.400703 -71.988130 -3.069290 -130.364739 80.937568 -129.197523 -3.347833 -17.485787 0.157028 -0.278361 0.839140 -0.114574 -3.607860 -76.270027 18.843199 114.264253 78.353496 110.676249 -15.547551 -22.098177 1.303009 -0.331963 -1.047426 -0.125829
-77.642789 50.410908 -6.561746 167.359747 -8.403294 0.062415 2.471105 8.136120 0.750835 0.120150 0.414522 -0.009778 0.198907 0.732180 -0.015545 2.153587 7.703922 -0.038811 1.439510 18.199341 -0.290566 2.740153 -1.978718 -1.002234 2.779201 6.424943 0.212964 -6.944576 -13.674360 -6.657485 -28.307872 -69.182943 41.753936 -3.434079 -2.945509 -26.726299 -5.508033 2.274343 -0.272804 18.232755 -7.270021 2.107279 34.448632 -68.341682 -53.485843 4.066911 1.276696 20.667970 -6.402110 -71.978039 -3.055635 -130.332307 80.935798 -129.175634 -3.337722 -17.488118 0.162660 -0.288486 0.841506 -0.118826 -3.574847 -76.258975 18.834213 114.313276 78.371411 110.727312 -15.570504 -22.112874 1.308062 -0.301193 -1.037636 -0.118357
-77.644404 50.411595 -6.562430 167.357202 -8.400460 0.072207 2.469087 8.136632 0.741007 0.116966 0.417751 -0.009579 0.198458 0.732322 -0.016933 2.149452 7.707878 -0.041370 1.438664 18.197293 -0.289800 2.738390 -1.982607 -1.000705 2.748165 6.407947 0.183642 -6.921574 -13.638809 -6.639105 -28.255641 -69.189419 41.705013 -3.424770 -2.925885 -26.744158 -5.509550 2.269304 -0.262174 18.219215 -7.239508 2.122068 34.263280 -68.324033 -53.314160 4.073264 1.270841 20.661496 -6.382824 -71.981148 -3.071154 -130.286416 80.930424 -129.141800 -3.324907 -17.490861 0.172455 -0.298702 0.845289 -0.124226 -3.520116 -76.260584 18.784898 114.326110 78.383529 110.743139 -15.583927 -22.120612 1.311159 -0.284600 -1.032481 -0.118435
-77.644344 50.412510 -6.563511 167.359670 -8.401360 0.071510 2.454797 8.147921 0.737862 0.122204 0.412784 -0.008732 0.197237 0.734675 -0.017626 2.147094 7.709848 -0.044743 1.436424 18.191115 -0.289308 2.734235 -1.994156 -0.999281 2.739220 6.395467 0.168669 -6.904590 -13.618748 -6.637866 -28.097707 -69.142038 41.534722 -3.436673 -2.961159 -26.733111 -5.510045 2.266035 -0.250454 18.189805 -7.190285 2.171672 34.223771 -68.285909 -53.283140 4.081811 1.257912 20.650572 -6.389038 -71.980092 -3.066768 -130.279053 80.925769 -129.137285 -3.316750 -17.489133 0.170630 -0.304423 0.840173 -0.127963 -3.521047 -76.258168 18.783282 114.328191 78.385971 110.744405 -15.569986 -22.126382 1.306729 -0.394977 -1.030524 -0.134362
-77.644400 50.413488 -6.564692 167.358197 -8.402241 0.071956 2.451738 8.154360 0.736213 0.117323 0.417360 -0.009820 0.203872 0.727670 -0.016460 2.144938 7.711402 -0.046662 1.426632 18.188012 -0.291115 2.733117 -2.006497 -0.999049 2.724910 6.389144 0.150284 -6.884634 -13.601660 -6.636791 -27.968288 -69.076286 41.395252 -3.449529 -3.000812 -26.723759 -5.515207 2.269588 -0.238424 18.182365 -7.173142 2.189045 34.170006 -68.223456 -53.244461 4.085348 1.259575 20.629279 -6.386713 -71.979064 -3.067529 -130.275781 80.922100 -129.135251 -3.310433 -17.488725 0.170217 -0.308841 0.837506 -0.128876 -3.533811 -76.254437 18.797449 114.344689 78.393577 110.754413 -15.550645 -22.129165 1.303867 -0.331614 -1.038673 -0.132964
-77.645473 50.414547 -6.566596 167.350231 -8.406014 0.080306 2.456751 8.164689 0.727381 0.116080 0.419278 -0.010183 0.204750 0.722583 -0.015131 2.141900 7.713020 -0.048606 1.417341 18.186807 -0.294046 2.741659 -2.014258 -0.999118 2.710010 6.381161 0.131037 -6.861317 -13.582139 -6.646820 -27.985701 -69.044995 41.407324 -3.470091 -2.981371 -26.725946 -5.519787 2.277541 -0.220135 18.185779 -7.169545 2.183967 34.124886 -68.129990 -53.224953 4.096423 1.254257 20.603524 -6.362401 -71.976733 -3.087164 -130.286191 80.923734 -129.147736 -3.309864 -17.488178 0.167583 -0.311048 0.836218 -0.128260 -3.527215 -76.246139 18.800412 114.383569 78.404432 110.785412 -15.558275 -22.128527 1.306752 -0.316820 -1.046537 -0.132619
-77.645811 50.415515 -6.567981 167.343532 -8.408067 0.083789 2.464039 8.173895 0.722188 0.115183 0.415916 -0.008458 0.200132 0.726313 -0.015685 2.136434 7.718419 -0.052517 1.415420 18.181023 -0.296031 2.729571 -2.037430 -0.995216 2.701604 6.361086 0.113093 -6.841875 -13.567432 -6.638536 -27.874017 -68.959110 41.295484 -3.484837 -3.020685 -26.717496 -5.516219 2.282698 -0.190221 18.187296 -7.169281 2.169470 34.160322 -67.987357 -53.291753 4.116534 1.239256 20.566139 -6.343463 -71.978904 -3.097773 -130.311218 80.921530 -129.171324 -3.319824 -17.476629 0.165826 -0.306963 0.823609 -0.127602 -3.538630 -76.235577 18.818416 114.379625 78.407882 110.770280 -15.548782 -22.135576 1.304589 -0.326280 -1.043966 -0.133882
-77.646406 50.416237 -6.568369 167.348389 -8.404559 0.086008 2.459307 8.177391 0.714770 0.116912 0.413198 -0.005712 0.201100 0.740322 -0.023297 2.134812 7.716282 -0.051849 1.407897 18.171458 -0.292850 2.684067 -2.052654 -0.983013 2.693201 6.339605 0.109580 -6.819824 -13.554910 -6.654466 -27.809457 -68.860649 41.235434 -3.478810 -3.093319 -26.718658 -5.517396 2.289438 -0.148071 18.174744 -7.170179 2.154251 34.326692 -67.767313 -53.485393 4.141231 1.211090 20.500864 -6.325264 -71.983029 -3.120161 -130.327940 80.921792 -129.182931 -3.323729 -17.473711 0.164394 -0.308511 0.818985 -0.128527 -3.533903 -76.237127 18.812378 114.351554 78.405904 110.741955 -15.576494 -22.125765 1.309783 -0.306758 -1.051156 -0.133254
-77.645953 50.416803 -6.568476 167.348800 -8.401477 0.082334 2.458976 8.179904 0.712647 0.116487 0.415183 -0.004977 0.201750 0.739889 -0.024916 2.131460 7.736716 -0.067834 1.415797 18.145457 -0.272533 2.661550 -2.050465 -0.973713 2.690762 6.303213 0.119210 -6.797888 -13.542034 -6.679379 -27.792332 -68.776420 41.232308 -3.480231 -3.143980 -26.732811 -5.506676 2.293360 -0.083898 18.160227 -7.174352 2.121572 34.616778 -67.456134 -53.810405 4.171756 1.167734 20.395692 -6.327292 -71.985511 -3.117455 -130.334844 80.922025 -129.186536 -3.319831 -17.470509 0.164012 -0.310288 0.814349 -0.133001 -3.570007 -76.236170 18.848690 114.323657 78.406131 110.708880 -15.576537 -22.110561 1.308415 -0.307660 -1.061710 -0.134304
-77.646252 50.417079 -6.568138 167.349375 -8.395348 0.081936 2.458367 8.176285 0.709647 0.115990 0.419147 -0.007921 0.202505 0.736587 -0.022457 2.136172 7.743621 -0.077442 1.403466 18.145611 -0.264858 2.660483 -2.057777 -0.966657 2.667122 6.264680 0.089946 -6.778651 -13.506561 -6.675024 -27.824460 -68.729063 41.276557 -3.580155 -3.107913 -26.754854 -5.505972 2.301794 -0.047551 18.157697 -7.163642 2.053727 34.967138 -67.063337 -54.215796 4.212814 1.105112 20.247309 -6.320853 -71.991570 -3.123403 -130.361304 80.927914 -129.211233 -3.321104 -17.468193 0.163857 -0.315391 0.812851 -0.133620 -3.586568 -76.241784 18.864707 114.297388 78.402639 110.678834 -15.582463 -22.086030 1.307968 -0.315483 -1.079978 -0.134716
-77.646825 50.416971 -6.567116 167.358011 -8.385018 0.080070 2.450005 8.168056 0.706592 0.123525 0.423755 -0.017546 0.195518 0.732579 -0.013369 2.146310 7.748870 -0.084649 1.385342 18.154413 -0.262619 2.658881 -2.071749 -0.955072 2.655428 6.252658 0.095545 -6.762463 -13.493655 -6.727337 -27.931342 -68.676133 41.392973 -3.645982 -3.117988 -26.767337 -5.488736 2.359150 0.037760 18.163368 -7.193150 1.904182 35.441473 -66.532277 -54.788711 4.266717 1.023409 20.063969 -6.317190 -72.002138 -3.134783 -130.359438 80.925520 -129.206895 -3.307484 -17.465884 0.161323 -0.323060 0.810458 -0.134545 -3.604996 -76.251713 18.874242 114.242438 78.397757 110.625271 -15.602511 -22.063091 1.304358 -0.248623 -1.089071 -0.123093
